<?xml version="1.0" encoding="UTF-8"?>
<!DOCTYPE svg PUBLIC "-//W3C//DTD SVG 1.1//EN" "http://www.w3.org/Graphics/SVG/1.1/DTD/svg11.dtd">
<svg xmlns="http://www.w3.org/2000/svg" version="1.1" width="512px" height="512px" style="shape-rendering:geometricPrecision; text-rendering:geometricPrecision; image-rendering:optimizeQuality; fill-rule:evenodd; clip-rule:evenodd" xmlns:xlink="http://www.w3.org/1999/xlink">
<g><path style="opacity:0.996" fill="#000000" d="M 30.5,-0.5 C 180.5,-0.5 330.5,-0.5 480.5,-0.5C 496.509,4.1754 506.842,14.5087 511.5,30.5C 511.5,180.5 511.5,330.5 511.5,480.5C 506.833,496.5 496.5,506.833 480.5,511.5C 330.5,511.5 180.5,511.5 30.5,511.5C 14.5,506.833 4.16667,496.5 -0.5,480.5C -0.5,330.5 -0.5,180.5 -0.5,30.5C 4.1754,14.4913 14.5087,4.15794 30.5,-0.5 Z M 244.5,121.5 C 275.425,118.149 303.758,124.982 329.5,142C 348.392,157.285 358.059,177.118 358.5,201.5C 337.833,201.5 317.167,201.5 296.5,201.5C 296.194,186.043 288.86,175.543 274.5,170C 259.294,165.859 244.961,167.859 231.5,176C 221.908,184.744 220.074,194.91 226,206.5C 234.637,215.907 245.137,222.407 257.5,226C 283.768,232.972 308.101,243.972 330.5,259C 359.818,285.548 365.985,316.715 349,352.5C 335.896,370.316 318.396,381.483 296.5,386C 258.373,394.458 222.373,389.125 188.5,370C 165.362,353.563 153.362,331.063 152.5,302.5C 173.5,302.5 194.5,302.5 215.5,302.5C 213.893,322.493 222.559,335.326 241.5,341C 257.079,345.452 272.079,344.118 286.5,337C 296.459,327.991 298.959,317.158 294,304.5C 291.925,300.421 289.092,296.921 285.5,294C 279.992,290.745 274.325,287.745 268.5,285C 244.993,277.611 222.326,268.278 200.5,257C 182.545,246.716 170.045,231.882 163,212.5C 155.924,180.5 166.09,155.666 193.5,138C 209.61,129.351 226.61,123.851 244.5,121.5 Z"/></g>
</svg>
